<?xml version="1.0" encoding="UTF-8" standalone="no"?>
<svg width="158px" height="73px" viewBox="0 0 158 73" version="1.1" xmlns="http://www.w3.org/2000/svg" xmlns:xlink="http://www.w3.org/1999/xlink">
    <!-- Generator: Sketch 3.8.3 (29802) - http://www.bohemiancoding.com/sketch -->
    <title>logo</title>
    <desc>Created with Sketch.</desc>
    <defs></defs>
    <g id="Page-1" stroke="none" stroke-width="1" fill="none" fill-rule="evenodd">
        <g id="iPhone-6-Plus" transform="translate(-129.000000, -141.000000)" fill="#FFFFFF">
            <path d="M178.178734,144.034778 C180.10115,144.034778 181.416467,144.304534 182.124725,144.844052 C182.832983,145.383571 183.187107,146.462593 183.187107,148.081149 C183.187107,150.138065 182.546311,152.981743 181.264701,155.173538 C174.890377,152.577104 162.524112,150.559551 151.360613,150.559551 L146.959316,150.559551 C146.72323,154.369903 146.605189,162.445704 146.605189,174.787198 L171.596462,174.787198 C172.034908,176.102275 172.254127,177.484771 172.254127,178.934728 C172.254127,179.878886 172.085497,180.511125 171.748231,180.831464 C171.410965,181.151804 170.753307,181.311971 169.775236,181.311971 L146.605189,181.311971 C146.638915,195.137141 146.756957,203.988489 146.959316,207.86628 L155.104245,207.86628 C155.508964,208.877878 155.711321,209.855741 155.711321,210.799899 C155.711321,211.642897 155.54269,212.232987 155.205425,212.570186 C154.868159,212.907386 154.277952,213.075983 153.434788,213.075983 L129.657665,213.075983 C129.21922,211.929505 129,210.867344 129,209.889466 C129,209.181347 129.177062,208.667126 129.531191,208.346787 C129.88532,208.026447 130.467095,207.86628 131.276533,207.86628 L135.020165,207.86628 C135.256251,203.17921 135.374292,191.158237 135.374292,171.802999 C135.374292,161.450982 135.256251,153.931551 135.020165,149.244481 L129.657665,149.244481 C129.21922,148.098003 129,147.035842 129,146.057964 C129,145.349845 129.177062,144.835624 129.531191,144.515285 C129.88532,144.194945 130.467095,144.034778 131.276533,144.034778 L178.178734,144.034778 Z M199.859198,169.021119 C196.48654,169.021119 193.923358,170.226588 192.169575,172.637563 C190.415793,175.048538 189.4546,178.816683 189.285967,183.942112 L194.496698,183.942112 C200.027858,183.942112 203.796747,183.832524 205.803479,183.613344 C207.810211,183.394165 208.97376,183.031681 209.294163,182.525882 C209.614565,182.020083 209.774764,181.075939 209.774764,179.693422 C209.774764,176.35515 208.931612,173.741895 207.245283,171.853579 C205.558954,169.965263 203.09695,169.021119 199.859198,169.021119 L199.859198,169.021119 Z M201.781604,162.243448 C208.054748,162.243448 212.708947,163.727102 215.74434,166.694456 C218.779732,169.661809 220.297406,174.551125 220.297406,181.36255 C220.297406,184.363624 219.757788,186.454228 218.678538,187.634425 C217.599287,188.814623 215.238462,189.404713 211.595991,189.404713 L189.235377,189.404713 C189.302831,194.901061 190.40736,199.217147 192.548998,202.3531 C194.690636,205.489053 198.476388,207.057006 203.906368,207.057006 C208.965355,207.057006 213.670143,205.741949 218.020873,203.111794 C219.471116,204.561751 220.196226,206.095985 220.196226,207.714541 C220.196226,209.973776 218.332861,211.558589 214.606073,212.469027 C210.879286,213.379465 206.671957,213.834677 201.983962,213.834677 C193.349957,213.834677 187.15279,212.005399 183.392276,208.346787 C179.631762,204.688175 177.751533,198.525951 177.751533,189.859929 C177.751533,181.328788 179.867844,174.593334 184.100531,169.653364 C188.333217,164.713395 194.226849,162.243448 201.781604,162.243448 L201.781604,162.243448 Z M232.961675,156.856716 C232.826768,152.962065 232.582254,150.424678 232.228125,149.244481 C231.873996,148.064283 231.292221,147.305596 230.482783,146.968397 C229.673345,146.631198 228.610974,146.462601 227.295637,146.462601 C226.857191,145.417283 226.637972,144.388841 226.637972,143.377243 C226.637972,142.331925 227.067979,141.674397 227.928007,141.404637 C228.788035,141.134878 231.562005,141 236.25,141 C238.9144,141 240.718745,141.126448 241.66309,141.379347 C242.607434,141.632247 243.147051,142.104319 243.281958,142.795577 C243.416864,143.486836 243.484316,144.675445 243.484316,146.361442 L243.484316,188.696598 C243.518043,196.78938 243.652947,203.17921 243.889033,207.86628 L250.223978,207.86628 C251.348194,208.742998 250.831053,209.687142 250.831053,210.69874 C250.831053,211.609178 250.64556,212.232987 250.274568,212.570186 C249.903575,212.907386 249.195328,213.075983 248.149803,213.075983 L226.57614,213.075983 C226.137694,211.996945 225.918475,210.985363 225.918475,210.041205 C225.918475,209.299366 226.103968,208.751426 226.474961,208.397366 C226.845953,208.043307 227.453023,207.86628 228.296187,207.86628 L232.039819,207.86628 C232.309632,203.17921 233.164033,195.255147 233.164033,184.093851 C233.164033,169.830322 233.096581,160.751368 232.961675,156.856716 Z M255.86191,163.507939 L260.021502,163.507939 L264.119261,149.143322 C265.535778,149.581681 266.741485,150.104332 267.736419,150.71129 C268.731353,151.318249 269.464895,152.034787 269.937068,152.860925 C270.40924,153.687063 270.645322,156.544784 270.645322,161.434173 L270.645322,163.507939 L285.850314,163.507939 C286.255033,164.620696 286.45739,165.800876 286.45739,167.048513 C286.45739,168.026391 286.271897,168.67549 285.900904,168.995829 C285.529912,169.316168 284.787938,169.476336 283.674961,169.476336 L270.645322,169.476336 L270.645322,193.400504 C270.645322,199.099172 271.168077,202.850457 272.213601,204.654473 C273.259125,206.458489 274.835819,207.411063 276.94373,207.512223 C279.051642,207.613383 281.640118,206.922134 284.709237,205.438458 C285.451222,206.551215 285.822209,207.765114 285.822209,209.080192 C285.822209,210.867348 284.835721,212.064387 282.862716,212.671346 C280.889711,213.278304 277.77848,213.581779 273.528931,213.581779 C268.908389,213.581779 265.544213,212.637635 263.436301,210.74932 C261.32839,208.861004 260.27445,205.337324 260.27445,200.178175 L260.27445,188.291961 C260.27445,181.817735 260.088956,175.545922 259.717964,169.476336 L254.040684,169.476336 C253.635965,168.262418 253.433608,167.082239 253.433608,165.935761 C253.433608,165.092763 253.619102,164.477383 253.990094,164.089604 C254.361087,163.701825 255.704516,163.507939 256.581407,163.507939 L255.86191,163.507939 Z" id="logo"></path>
        </g>
    </g>
</svg>