<?xml version="1.0" encoding="UTF-8" standalone="no"?>
<svg width="333px" height="179px" viewBox="0 0 333 179" version="1.1" xmlns="http://www.w3.org/2000/svg" xmlns:xlink="http://www.w3.org/1999/xlink">
    <!-- Generator: Sketch 3.8.3 (29802) - http://www.bohemiancoding.com/sketch -->
    <title>floating</title>
    <desc>Created with Sketch.</desc>
    <defs></defs>
    <g id="Page-1" stroke="none" stroke-width="1" fill="none" fill-rule="evenodd">
        <g id="iPhone-6-Plus" transform="translate(-34.000000, -492.000000)" fill="#FFFFFF">
            <g id="floating" transform="translate(34.000000, 458.000000)">
                <path d="M111.915565,40.8455589 C111.915565,38.6331882 113.407697,35.856474 115.252034,34.6411566 L218.558911,-33.4324334 C220.401592,-34.6466595 221.89538,-33.842336 221.89538,-31.6251326 L221.89538,208.978541 C221.89538,211.190912 220.403248,213.967626 218.558911,215.182944 L115.252034,283.256534 C113.409353,284.47076 111.915565,283.666436 111.915565,281.449233 L111.915565,40.8455589 Z" id="Rectangle-1-Copy" opacity="0.479652519" transform="translate(166.905473, 124.912050) rotate(-117.000000) translate(-166.905473, -124.912050) "></path>
                <path d="M112.019879,37.8148876 C112.019879,35.6025169 113.512011,32.8258027 115.356348,31.6104853 L218.663225,-36.4631047 C220.505906,-37.6773308 221.999694,-36.8730073 221.999694,-34.6558039 L221.999694,205.94787 C221.999694,208.160241 220.507562,210.936955 218.663225,212.152272 L115.356348,280.225862 C113.513667,281.440088 112.019879,280.635765 112.019879,278.418561 L112.019879,37.8148876 Z" id="Rectangle-1-Copy-3" opacity="0.901527519" transform="translate(167.009787, 121.881379) rotate(-117.000000) translate(-167.009787, -121.881379) "></path>
            </g>
        </g>
    </g>
</svg>