<?xml version="1.0" encoding="UTF-8" standalone="no"?>
<svg width="36px" height="35px" viewBox="0 0 36 35" version="1.1" xmlns="http://www.w3.org/2000/svg" xmlns:xlink="http://www.w3.org/1999/xlink">
    <!-- Generator: Sketch 3.8.3 (29802) - http://www.bohemiancoding.com/sketch -->
    <title>github</title>
    <desc>Created with Sketch.</desc>
    <defs></defs>
    <g id="Page-1" stroke="none" stroke-width="1" fill="none" fill-rule="evenodd">
        <g id="iPhone-6-Plus" transform="translate(-193.000000, -2761.000000)" fill="#71746C">
            <g id="github" transform="translate(193.000000, 2761.000000)">
                <path d="M23.7101183,34.2514246 C23.5381183,34.3134246 23.3651183,34.3884246 23.1881183,34.4194246 C22.5101183,34.5404246 22.0761183,34.1904246 22.0721183,33.4974246 C22.0631183,32.2104246 22.0631183,30.9254246 22.0841183,29.6384246 C22.1061183,28.1584246 22.0721183,26.6974246 20.9451183,25.4764246 C21.6151183,25.3564246 22.2111183,25.2724246 22.7941183,25.1384246 C26.6561183,24.2514246 28.6621183,21.8154246 28.9181183,17.7724246 C29.0491183,15.7144246 28.6821183,13.8264246 27.3141183,12.2054246 C27.2151183,12.0914246 27.2101183,11.8324246 27.2571183,11.6664246 C27.6211183,10.3264246 27.5151183,9.01742458 27.0911183,7.70742458 C26.9861183,7.38042458 26.8121183,7.27942458 26.4891183,7.30042458 C25.3551183,7.36342458 24.3161183,7.76142458 23.4001183,8.37342458 C22.5171183,8.96642458 21.6951183,9.09542458 20.6461183,8.85542458 C18.3361183,8.33442458 16.0111183,8.48642458 13.7061183,9.02042458 C13.4451183,9.08242458 13.0941183,8.99942458 12.8551183,8.85942458 C11.7731183,8.22542458 10.6911183,7.60942458 9.44311833,7.36342458 C8.47811833,7.17542458 8.39411833,7.22342458 8.13811833,8.15642458 C7.81611833,9.33242458 7.78411833,10.5094246 8.11311833,11.6924246 C8.16011833,11.8644246 8.11111833,12.1404246 7.99611833,12.2674246 C5.43911833,15.1204246 6.36511833,20.5114246 8.08811833,22.5764246 C9.42811833,24.1804246 11.2081183,24.9024246 13.1841183,25.2774246 C13.5291183,25.3414246 13.8721183,25.3904246 14.2171183,25.4504246 C13.9211183,26.2204246 13.6551183,26.9474246 13.3541183,27.6624246 C13.2951183,27.8004246 13.1081183,27.9164246 12.9551183,27.9744246 C11.0171183,28.7264246 9.35111833,28.1734246 8.24211833,26.4144246 C7.64911833,25.4764246 6.88811833,24.7754246 5.75411833,24.5724246 C5.71811833,24.5654246 5.68111833,24.5464246 5.64811833,24.5514246 C5.34311833,24.6314246 5.04111833,24.7154246 4.73711833,24.7974246 C4.90811833,25.0354246 5.02911833,25.3554246 5.25811833,25.4984246 C6.21911833,26.1064246 6.84411833,26.9734246 7.25711833,27.9964246 C7.90611833,29.6004246 9.16611833,30.3154246 10.8031183,30.4554246 C11.6021183,30.5204246 12.4091183,30.4654246 13.2841183,30.4654246 C13.2841183,31.4614246 13.3201183,32.5984246 13.2691183,33.7304246 C13.2431183,34.3404246 12.6301183,34.5844246 11.8961183,34.3344246 C9.94911833,33.6684246 8.14411833,32.7134246 6.58511833,31.3714246 C0.956118327,26.5224246 -1.21388167,20.3924246 0.657118327,13.2174246 C2.52211833,6.06542458 7.38311833,1.67842458 14.6511183,0.30142458 C24.7081183,-1.60057542 34.2351183,5.72342458 35.2331183,15.9324246 C36.0211183,23.9804246 31.2841183,31.5114246 23.7101183,34.2514246 L23.7101183,34.2514246 Z M14.2291183,25.4124246 C14.2231183,25.4264246 14.2191183,25.4364246 14.2131183,25.4504246 C14.2311183,25.4534246 14.2491183,25.4564246 14.2681183,25.4594246 C14.2821183,25.4604246 14.2941183,25.4854246 14.2291183,25.4124246 L14.2291183,25.4124246 Z M9.67911833,28.5934246 C9.83611833,28.6904246 9.98611833,28.8134246 10.1561183,28.8664246 C10.2181183,28.8864246 10.3331183,28.7454246 10.5361183,28.5954246 C10.2541183,28.4884246 10.0881183,28.3944246 9.91311833,28.3704246 C9.84511833,28.3624246 9.75711833,28.5154246 9.67911833,28.5934246 L9.67911833,28.5934246 Z M11.1121183,28.8394246 C11.1351183,28.9444246 11.3441183,29.0754246 11.4671183,29.0734246 C11.5861183,29.0714246 11.7021183,28.9134246 11.8211183,28.8234246 C11.7131183,28.7244246 11.6051183,28.6284246 11.2731183,28.3294246 C11.2011183,28.5374246 11.0821183,28.7054246 11.1121183,28.8394246 L11.1121183,28.8394246 Z M12.8701183,28.4164246 C12.7221183,28.4514246 12.5971183,28.5884246 12.4621183,28.6824246 C12.5411183,28.7824246 12.6201183,28.8754246 12.7471183,29.0324246 C12.9221183,28.8724246 13.0411183,28.7614246 13.1611183,28.6534246 C13.0611183,28.5664246 12.9441183,28.3984246 12.8701183,28.4164246 L12.8701183,28.4164246 Z M8.51211833,27.8234246 C8.59411833,27.9784246 8.72111833,28.1124246 8.89311833,28.3314246 C9.00811833,28.1434246 9.13311833,27.9994246 9.11111833,27.9704246 C9.00211833,27.8274246 8.85411833,27.7104246 8.70811833,27.6034246 C8.69811833,27.5954246 8.49511833,27.7894246 8.51211833,27.8234246 L8.51211833,27.8234246 Z" id="Shape"></path>
            </g>
        </g>
    </g>
</svg>