<?xml version="1.0" encoding="UTF-8" standalone="no"?>
<svg width="180px" height="180px" viewBox="0 0 180 180" version="1.1" xmlns="http://www.w3.org/2000/svg" xmlns:xlink="http://www.w3.org/1999/xlink">
    <!-- Generator: Sketch 3.8.3 (29802) - http://www.bohemiancoding.com/sketch -->
    <title>system</title>
    <desc>Created with Sketch.</desc>
    <defs></defs>
    <g id="Page-1" stroke="none" stroke-width="1" fill="none" fill-rule="evenodd">
        <g id="iPhone-6-Plus" transform="translate(-117.000000, -1333.000000)">
            <g id="system" transform="translate(117.000000, 1333.000000)">
                <rect id="Rectangle-8-Copy-3" fill="#4A4A4A" opacity="0.900000036" transform="translate(90.000000, 90.000000) rotate(-360.000000) translate(-90.000000, -90.000000) " x="-3.62544971e-14" y="-2.4158453e-13" width="180" height="180"></rect>
                <rect id="Rectangle-8-Copy-4" fill="#67BE54" opacity="0.900000036" transform="translate(49.000000, 49.000000) rotate(-360.000000) translate(-49.000000, -49.000000) " x="10" y="10" width="78" height="78"></rect>
                <rect id="Rectangle-8-Copy-5" fill="#54A4BE" opacity="0.900000036" transform="translate(131.000000, 49.000000) rotate(-360.000000) translate(-131.000000, -49.000000) " x="92" y="10" width="78" height="78"></rect>
                <polygon id="Rectangle-8-Copy-7" fill="#BE9E54" opacity="0.900000036" transform="translate(90.000000, 149.000000) rotate(-360.000000) translate(-90.000000, -149.000000) " points="10 128 170 128 170 170 10 170"></polygon>
                <polygon id="Rectangle-8-Copy-7" fill="#D3C925" opacity="0.900000036" transform="translate(90.000000, 108.000000) rotate(-360.000000) translate(-90.000000, -108.000000) " points="10 92 170 92 170 124 10 124"></polygon>
                <text id="Rollup" transform="translate(49.000000, 49.500000) rotate(-360.000000) translate(-49.000000, -49.500000) " font-family="AmericanTypewriter, American Typewriter" font-size="14" font-weight="normal" fill="#FFFFFF">
                    <tspan x="27.111" y="54">Rollup</tspan>
                </text>
                <text id="Express" transform="translate(90.500000, 149.500000) rotate(-360.000000) translate(-90.500000, -149.500000) " font-family="AmericanTypewriter, American Typewriter" font-size="14" font-weight="normal" fill="#FFFFFF">
                    <tspan x="63.109" y="154">Express</tspan>
                </text>
                <text id="cache" transform="translate(89.500000, 107.500000) rotate(-360.000000) translate(-89.500000, -107.500000) " font-family="AmericanTypewriter, American Typewriter" font-size="14" font-weight="normal" fill="#FFFFFF">
                    <tspan x="70.348" y="112">cache</tspan>
                </text>
                <text id="PostCSS" transform="translate(132.000000, 49.500000) rotate(-360.000000) translate(-132.000000, -49.500000) " font-family="AmericanTypewriter, American Typewriter" font-size="14" font-weight="normal" fill="#FFFFFF">
                    <tspan x="104.455" y="54">PostCSS</tspan>
                </text>
            </g>
        </g>
    </g>
</svg>